HIERARCHY
ROOT Hips
{
	OFFSET 0.000000 0.000000 0.000000
	CHANNELS 6 Xposition Yposition Zposition Xrotation Yrotation Zrotation
	JOINT LeftUpLeg_virtual
	{
		OFFSET 0.000000 0.000000 0.000000
		CHANNELS 3 Xrotation Yrotation Zrotation
		JOINT LeftUpLeg
		{
			OFFSET 10.205400 -3.823500 0.155100
			CHANNELS 3 Xrotation Yrotation Zrotation
			JOINT LeftLeg
			{
				OFFSET 0.708757 -12.982077 0.567790
				CHANNELS 3 Xrotation Yrotation Zrotation
				JOINT LeftFoot
				{
					OFFSET -0.708756 -10.717838 -2.184338
					CHANNELS 3 Xrotation Yrotation Zrotation
					JOINT LeftToeBase
					{
						OFFSET 0.108149 -7.191104 7.560241
						CHANNELS 3 Xrotation Yrotation Zrotation
						JOINT LeftToe_End
						{
							OFFSET 0.070230 0.081724 4.490308
							CHANNELS 3 Xrotation Yrotation Zrotation
							End Site
							{
								OFFSET 0 0 0
							}
						}
					}
				}
			}
		}
	}
	JOINT RightUpLeg_virtual
	{
		OFFSET 0.000000 0.000000 0.000000
		CHANNELS 3 Xrotation Yrotation Zrotation
		JOINT RightUpLeg
		{
			OFFSET -10.205400 -3.823500 0.005500
			CHANNELS 3 Xrotation Yrotation Zrotation
			JOINT RightLeg
			{
				OFFSET -0.708756 -12.982134 0.610632
				CHANNELS 3 Xrotation Yrotation Zrotation
				JOINT RightFoot
				{
					OFFSET 0.708754 -10.717769 -1.945823
					CHANNELS 3 Xrotation Yrotation Zrotation
					JOINT RightToeBase
					{
						OFFSET -0.108140 -7.191069 7.372968
						CHANNELS 3 Xrotation Yrotation Zrotation
						JOINT RightToe_End
						{
							OFFSET -0.070227 0.081735 4.479403
							CHANNELS 3 Xrotation Yrotation Zrotation
							End Site
							{
								OFFSET 0 0 0
							}
						}
					}
				}
			}
		}
	}
	JOINT Spine_virtual
	{
		OFFSET 0.000000 0.000000 0.000000
		CHANNELS 3 Xrotation Yrotation Zrotation
		JOINT Spine
		{
			OFFSET 0.000000 6.876099 0.125700
			CHANNELS 3 Xrotation Yrotation Zrotation
			JOINT Spine1
			{
				OFFSET 0.000000 5.730043 0.104720
				CHANNELS 3 Xrotation Yrotation Zrotation
				JOINT Spine1_split
				{
					OFFSET 0.000000 5.730043 0.104720
					CHANNELS 3 Xrotation Yrotation Zrotation
					JOINT Spine2
					{
						OFFSET 0.000000 5.730043 0.104720
						CHANNELS 3 Xrotation Yrotation Zrotation
						JOINT Neck_virtual
						{
							OFFSET 0.000000 0.000000 0.000000
							CHANNELS 3 Xrotation Yrotation Zrotation
							JOINT Neck
							{
								OFFSET 0.000000 10.314075 0.188496
								CHANNELS 3 Xrotation Yrotation Zrotation
								JOINT Head
								{
									OFFSET 0.000000 7.643700 -2.377400
									CHANNELS 3 Xrotation Yrotation Zrotation
									JOINT HeadTop_End
									{
										OFFSET 0.000000 43.788605 -13.619600
										CHANNELS 3 Xrotation Yrotation Zrotation
										End Site
										{
											OFFSET 0 0 0
										}
									}
								}
							}
						}
						JOINT LeftShoulder_virtual
						{
							OFFSET 0.000000 0.000000 0.000000
							CHANNELS 3 Xrotation Yrotation Zrotation
							JOINT LeftShoulder
							{
								OFFSET 2.196100 4.412489 0.087492
								CHANNELS 3 Xrotation Yrotation Zrotation
								JOINT LeftShoulder_split
								{
									OFFSET 2.196100 4.412489 0.087492
									CHANNELS 3 Xrotation Yrotation Zrotation
									JOINT LeftArm
									{
										OFFSET 8.771219 -2.981674 -0.026999
										CHANNELS 3 Xrotation Yrotation Zrotation
										JOINT LeftForeArm
										{
											OFFSET 8.512804 0.000000 -0.000000
											CHANNELS 3 Xrotation Yrotation Zrotation
											JOINT LeftHand
											{
												OFFSET 18.484802 0.000000 -0.000000
												CHANNELS 3 Xrotation Yrotation Zrotation
												End Site
												{
													OFFSET 0 0 0
												}
											}
										}
									}
								}
							}
						}
						JOINT RightShoulder_virtual
						{
							OFFSET 0.000000 0.000000 0.000000
							CHANNELS 3 Xrotation Yrotation Zrotation
							JOINT RightShoulder
							{
								OFFSET -2.196100 4.412496 0.070690
								CHANNELS 3 Xrotation Yrotation Zrotation
								JOINT RightShoulder_split
								{
									OFFSET -2.196100 4.412496 0.070690
									CHANNELS 3 Xrotation Yrotation Zrotation
									JOINT RightArm
									{
										OFFSET -8.771282 -2.981682 -0.094208
										CHANNELS 3 Xrotation Yrotation Zrotation
										JOINT RightForeArm
										{
											OFFSET -8.494598 0.000000 0.000000
											CHANNELS 3 Xrotation Yrotation Zrotation
											JOINT RightHand
											{
												OFFSET -18.483803 0.000000 0.000001
												CHANNELS 3 Xrotation Yrotation Zrotation
												End Site
												{
													OFFSET 0 0 0
												}
											}
										}
									}
								}
							}
						}
					}
				}
			}
		}
	}
}
MOTION
Frames: 4
Frame Time: 0.03333333
2.860960 30.636435 -0.385447 0.000000 0.000000 0.000000 170.153645 -76.098109 -179.708930 -7.564614 18.749074 13.393243 45.442266 12.837029 -8.000732 -27.296556 20.399637 -24.064969 0.013620 -0.196501 -0.257231 0.000000 0.000000 0.000000 165.851733 -77.845729 176.744928 -31.074202 13.835673 -20.969003 38.553976 0.629370 -11.682950 -22.669348 15.410811 20.516331 2.092028 2.549949 1.674664 0.000000 0.000000 0.000000 168.396388 -78.375697 178.998645 25.885804 -12.162917 7.640998 22.676725 -2.586630 0.783083 0.675552 -1.094704 1.433222 0.000000 0.000000 0.000000 21.998337 -2.834667 0.698214 12.248807 -3.030590 -5.636658 -26.488544 17.523887 -9.008022 0.000000 0.000000 0.000000 23.848832 -3.131654 1.062426 -0.736042 -10.710833 10.274070 -2.762457 -2.468155 1.248355 16.314035 18.118535 -75.777390 11.111806 -81.575593 9.372165 0.000000 0.000000 0.000000 22.462467 -2.790826 1.410934 6.972530 16.475673 13.175688 6.255982 4.029146 5.006332 -61.222831 52.714901 51.610043 178.136798 66.419533 -176.973494 0.000000 0.000000 0.000000 
2.840931 30.478813 -0.621805 0.000000 0.000000 0.000000 175.994973 -78.877634 -173.064781 -7.792318 19.608568 14.563630 46.474858 10.802999 -7.515019 -29.091220 17.827769 -24.208559 -1.266550 -0.161389 0.011048 0.000000 0.000000 0.000000 171.957034 -81.573236 -176.504847 -31.115132 11.692524 -22.945145 42.400448 -0.290536 -11.575819 -22.766219 12.934415 19.087027 2.847303 2.677957 1.435124 0.000000 0.000000 0.000000 175.270632 -80.767301 -173.839133 24.768184 -12.932424 7.196448 22.461036 -2.860200 1.028104 1.429916 -0.662046 1.473982 0.000000 0.000000 0.000000 21.736085 -3.154338 0.889596 11.325893 -2.806389 -7.303999 -22.993369 19.263452 -10.641396 0.000000 0.000000 0.000000 23.551732 -3.370175 1.347024 -0.686278 -9.549404 9.390381 -2.676693 -2.892870 1.122701 8.343488 26.740457 -71.023162 -1.440681 -86.135072 -2.216073 0.000000 0.000000 0.000000 22.151666 -3.076055 1.576320 7.295393 17.751786 13.379157 5.149430 3.903882 4.904163 -55.841721 46.953975 45.587708 177.781778 65.888929 -176.754436 0.000000 0.000000 0.000000 
2.785402 30.334942 -0.945671 0.000000 0.000000 0.000000 -170.770644 -82.692390 -159.211218 -8.535669 19.783706 16.183884 47.102668 8.377395 -6.432720 -29.973131 14.550861 -25.199105 -1.789924 -0.092442 0.147907 0.000000 0.000000 0.000000 -167.443481 -86.027530 -155.460925 -30.903160 9.447381 -25.029816 46.416845 -1.445487 -11.231340 -22.361742 10.098796 18.007698 3.280322 2.743245 1.016513 0.000000 0.000000 0.000000 -171.916285 -84.011982 -161.101896 23.280770 -13.035505 6.982050 21.889238 -3.080171 1.301726 1.721380 0.029553 1.199300 0.000000 0.000000 0.000000 21.462237 -3.450063 1.114038 9.695271 -2.582363 -7.606390 -19.433515 20.618031 -12.131281 0.000000 0.000000 0.000000 23.043195 -3.536162 1.617572 -0.603050 -8.622679 8.877006 -1.962613 -2.445432 0.628905 1.005114 29.827952 -67.070067 -156.765819 -86.729121 -156.623136 0.000000 0.000000 0.000000 21.754465 -3.336463 1.696269 7.608611 19.047166 13.304216 3.750715 3.765323 4.340835 -53.619324 42.165985 43.097240 178.273757 66.063721 -177.425953 0.000000 0.000000 0.000000 
2.725293 30.217110 -1.210611 0.000000 0.000000 0.000000 -125.831113 -86.150050 -114.004648 -9.689515 19.187847 17.818027 47.271647 6.183350 -4.937750 -30.253415 11.018614 -26.341249 -1.510034 0.014121 0.057408 0.000000 0.000000 0.000000 -66.814427 -86.848123 -54.595857 -30.066035 7.487434 -26.739926 49.970644 -2.712503 -10.898298 -21.872547 7.067624 17.373991 3.247213 2.714128 0.646668 0.000000 0.000000 0.000000 -130.965763 -86.911493 -120.490507 21.595334 -12.434909 6.806798 20.985884 -3.154103 1.380199 1.260034 0.527287 0.606448 0.000000 0.000000 0.000000 21.093055 -3.648597 1.107201 7.821554 -2.352500 -6.589775 -15.872192 21.544565 -13.043539 0.000000 0.000000 0.000000 22.324127 -3.621462 1.610278 -0.504859 -8.087882 8.529304 -1.377421 -1.861072 -0.174272 -2.861013 27.469460 -65.676572 -171.830143 -78.674026 -171.086321 0.000000 0.000000 0.000000 21.289809 -3.503664 1.595110 7.790135 20.113025 12.967167 2.266555 4.026070 3.874988 -53.151586 38.115932 42.820724 179.338009 67.037105 -178.788370 0.000000 0.000000 0.000000 
